<svg width="32" height="32" viewBox="0 0 32 32" fill="none" xmlns="http://www.w3.org/2000/svg">
<circle cx="16" cy="16" r="15.5" fill="white" stroke="#EBEBF3"/>
<circle cx="16" cy="16" r="10" fill="#0033AD"/>
<path d="M12.9868 15.953C12.9583 16.4559 13.3368 16.8871 13.8324 16.9165H13.8815C14.3704 16.9159 14.769 16.5185 14.778 16.0225C14.787 15.5265 14.4031 15.1144 13.9145 15.0956C13.4259 15.0768 13.0124 15.4582 12.9843 15.9535L12.9868 15.953Z" fill="white"/>
<path d="M9.63948 15.722C9.47968 15.713 9.34287 15.837 9.33384 15.9991C9.32482 16.1612 9.447 16.3001 9.60679 16.3093C9.76658 16.3186 9.90351 16.1947 9.9127 16.0326C9.91725 15.9546 9.89098 15.878 9.8397 15.8197C9.78843 15.7614 9.71637 15.7263 9.63948 15.722Z" fill="white"/>
<path d="M12.9299 10.6671C13.0722 10.593 13.1286 10.4161 13.056 10.2714C12.9835 10.1268 12.8093 10.0689 12.6665 10.142C12.5236 10.215 12.466 10.3916 12.5375 10.5367C12.5722 10.607 12.6332 10.6604 12.7069 10.6848C12.7806 10.7093 12.8609 10.7029 12.9299 10.6671Z" fill="white"/>
<path d="M13.8408 12.2786C14.0618 12.1655 14.1506 11.892 14.0392 11.6677C13.9278 11.4434 13.6582 11.3532 13.4371 11.4662C13.216 11.5792 13.1271 11.8527 13.2384 12.077C13.2919 12.1848 13.3855 12.2666 13.4984 12.3044C13.6114 12.3423 13.7346 12.3329 13.8408 12.2786Z" fill="white"/>
<path d="M10.7755 13.387C10.9004 13.4703 11.0624 13.4691 11.186 13.3838C11.3097 13.2986 11.3705 13.1463 11.3401 12.9978C11.3098 12.8493 11.1943 12.734 11.0475 12.7057C10.9007 12.6774 10.7515 12.7416 10.6696 12.8684C10.5578 13.0413 10.6053 13.2734 10.7755 13.387Z" fill="white"/>
<path d="M11.3214 15.5563C11.0743 15.5421 10.8626 15.7339 10.8486 15.9846C10.8345 16.2354 11.0235 16.4502 11.2706 16.4646C11.5178 16.4789 11.7296 16.2873 11.7438 16.0365C11.7577 15.7856 11.5687 15.5707 11.3214 15.5563Z" fill="white"/>
<path d="M10.8246 18.6146C10.6426 18.708 10.5696 18.9333 10.6615 19.118C10.7534 19.3027 10.9755 19.3769 11.1576 19.2837C11.3397 19.1904 11.4128 18.9651 11.321 18.7804C11.2769 18.6916 11.1998 18.6242 11.1067 18.5931C11.0135 18.562 10.9121 18.5698 10.8246 18.6146Z" fill="white"/>
<path d="M12.5674 14.6161C12.8111 14.7782 13.1383 14.7092 13.2981 14.4618C13.4579 14.2145 13.3898 13.8826 13.1461 13.7204C12.9023 13.5583 12.5751 13.6273 12.4153 13.8746C12.3384 13.9934 12.3112 14.1383 12.3397 14.2774C12.3683 14.4165 12.4502 14.5384 12.5674 14.6161Z" fill="white"/>
<path d="M18.0966 12.2427C18.3041 12.3801 18.5822 12.3208 18.7176 12.1102C18.8531 11.8997 18.7947 11.6176 18.5872 11.4801C18.3797 11.3426 18.1017 11.4017 17.9661 11.6122C17.9008 11.7133 17.8778 11.8366 17.9023 11.9549C17.9268 12.0732 17.9967 12.1768 18.0966 12.2427Z" fill="white"/>
<path d="M19.0168 10.6363C19.115 10.7016 19.2424 10.7004 19.3395 10.6333C19.4366 10.5662 19.4843 10.4463 19.4602 10.3296C19.4362 10.213 19.3453 10.1224 19.2298 10.1003C19.1144 10.0782 18.9972 10.1289 18.9329 10.2287C18.8452 10.3647 18.8828 10.5471 19.0168 10.6363Z" fill="white"/>
<path d="M18.1671 15.086C17.6721 15.0571 17.2477 15.4409 17.2192 15.9433C17.1908 16.4456 17.5691 16.8762 18.0641 16.905C18.0813 16.905 18.099 16.905 18.1161 16.905C18.4699 16.9048 18.7906 16.6938 18.9351 16.3662C19.0796 16.0385 19.0209 15.6553 18.7852 15.3876C18.6274 15.207 18.4047 15.0984 18.1671 15.086Z" fill="white"/>
<path d="M14.1356 14.553C14.2876 14.8611 14.5985 15.0553 14.9381 15.0542C15.2502 15.0542 15.5399 14.8899 15.7034 14.6201C15.8668 14.3504 15.8805 14.0139 15.7396 13.7313C15.5865 13.4247 15.2759 13.232 14.9371 13.2337C14.626 13.2342 14.3373 13.398 14.174 13.6668C14.0108 13.9355 13.9962 14.2708 14.1356 14.553Z" fill="white"/>
<path d="M21.1746 13.3859C21.3566 13.2927 21.4298 13.0674 21.338 12.8827C21.2462 12.6979 21.0242 12.6236 20.8421 12.7166C20.6599 12.8096 20.5866 13.0348 20.6782 13.2197C20.7701 13.4046 20.9923 13.479 21.1746 13.3859Z" fill="white"/>
<path d="M18.898 13.6761C18.6377 13.8091 18.5329 14.1311 18.6641 14.3952C18.7952 14.6593 19.1125 14.7656 19.3729 14.6326C19.6332 14.4996 19.738 14.1776 19.6069 13.9134C19.544 13.7865 19.4339 13.6901 19.301 13.6456C19.168 13.6011 19.023 13.612 18.898 13.6761Z" fill="white"/>
<path d="M15.9657 10.4989C16.1149 10.5075 16.2545 10.4241 16.3194 10.2876C16.3843 10.151 16.3618 9.98824 16.2623 9.87516C16.1627 9.76208 16.0059 9.72098 15.8648 9.77102C15.7238 9.82106 15.6263 9.95239 15.618 10.1038C15.6065 10.3103 15.7622 10.4872 15.9657 10.4989Z" fill="white"/>
<path d="M15.9618 12.8574C16.2528 12.874 16.5019 12.6482 16.5183 12.353C16.5348 12.0578 16.3123 11.8049 16.0214 11.7881C15.7304 11.7713 15.4811 11.9969 15.4644 12.292C15.448 12.5875 15.6706 12.8406 15.9618 12.8574Z" fill="white"/>
<path d="M13.1021 18.3239C13.2927 18.2264 13.4067 18.0219 13.3908 17.8059C13.375 17.5899 13.2324 17.4049 13.0296 17.3371C12.8268 17.2693 12.6038 17.3322 12.4645 17.4963C12.3252 17.6605 12.2971 17.8936 12.3933 18.087C12.5246 18.3509 12.8419 18.457 13.1021 18.3239Z" fill="white"/>
<path d="M16.3027 13.6388C16.0775 13.9874 16.1144 14.4468 16.3923 14.7539C16.6702 15.061 17.1181 15.1374 17.4797 14.9395C17.8414 14.7415 18.0244 14.3198 17.924 13.9155C17.8237 13.5112 17.4656 13.2277 17.0547 13.2272C16.7517 13.227 16.469 13.3817 16.3027 13.6388Z" fill="white"/>
<path d="M17.8635 17.4475C17.6645 17.047 17.2078 16.8532 16.787 16.9906C16.3663 17.128 16.1067 17.5557 16.1752 17.9988C16.2438 18.4418 16.62 18.7683 17.062 18.7683C17.2025 18.7673 17.3409 18.7332 17.4662 18.6688C17.9075 18.4421 18.0852 17.8961 17.8635 17.4475Z" fill="white"/>
<path d="M19.4323 17.3838C19.1886 17.2215 18.8614 17.2903 18.7014 17.5376C18.5414 17.7848 18.6093 18.1168 18.853 18.2791C19.0966 18.4414 19.4239 18.3726 19.5838 18.1253C19.7432 17.878 19.6755 17.5464 19.4323 17.3838Z" fill="white"/>
<path d="M21.151 16.0157C21.165 15.7649 20.976 15.5501 20.7288 15.5359C20.4817 15.5217 20.2699 15.7134 20.2558 15.9641C20.2417 16.2149 20.4305 16.4298 20.6777 16.4442C20.925 16.4583 21.1368 16.2666 21.151 16.0157Z" fill="white"/>
<path d="M22.393 15.6917C22.2758 15.6848 22.166 15.7503 22.1149 15.8576C22.0638 15.9649 22.0814 16.0928 22.1595 16.1818C22.2377 16.2708 22.361 16.3032 22.4719 16.264C22.5828 16.2248 22.6595 16.1217 22.6662 16.0027C22.6752 15.8404 22.553 15.7013 22.393 15.6917Z" fill="white"/>
<path d="M21.2236 18.6131C21.053 18.4997 20.8241 18.5481 20.7123 18.7211C20.6005 18.8942 20.6482 19.1265 20.8187 19.2399C20.9893 19.3534 21.2182 19.3051 21.3301 19.1321C21.3838 19.049 21.4028 18.9476 21.3829 18.8502C21.3629 18.7529 21.3056 18.6675 21.2236 18.6131Z" fill="white"/>
<path d="M12.9829 21.3638C12.8488 21.2745 12.6688 21.3124 12.5808 21.4484C12.4928 21.5844 12.5301 21.7671 12.6642 21.8564C12.7982 21.9457 12.9782 21.9078 13.0663 21.7719C13.1086 21.7065 13.1235 21.6268 13.1079 21.5503C13.0923 21.4737 13.0473 21.4066 12.9829 21.3638Z" fill="white"/>
<path d="M19.0692 21.3328C18.9643 21.3865 18.9016 21.499 18.9104 21.6178C18.9191 21.7366 18.9975 21.8385 19.109 21.8758C19.2206 21.9131 19.3433 21.8785 19.42 21.7882C19.4966 21.6979 19.5121 21.5696 19.4592 21.4632C19.4246 21.3934 19.3641 21.3404 19.2909 21.3159C19.2177 21.2915 19.138 21.2976 19.0692 21.3328Z" fill="white"/>
<path d="M15.6965 18.3598C15.9217 18.0111 15.8848 17.5517 15.6068 17.2446C15.3289 16.9375 14.8809 16.8611 14.5192 17.0592C14.1576 17.2572 13.9747 17.6791 14.0753 18.0834C14.1758 18.4877 14.5341 18.7711 14.945 18.7714C15.2481 18.7724 15.531 18.6175 15.6965 18.3598Z" fill="white"/>
<path d="M13.9026 19.7577C13.6955 19.6202 13.4177 19.6791 13.2821 19.8893C13.1465 20.0994 13.2044 20.3813 13.4115 20.5189C13.6186 20.6565 13.8964 20.5979 14.0321 20.3878C14.1677 20.1775 14.1097 19.8955 13.9026 19.7577Z" fill="white"/>
<path d="M15.9956 21.5011C15.792 21.4894 15.6175 21.6473 15.6059 21.8539C15.5943 22.0605 15.7499 22.2376 15.9535 22.2494C16.1572 22.2612 16.3317 22.1034 16.3434 21.8968C16.349 21.7975 16.3155 21.7 16.2503 21.6258C16.1851 21.5516 16.0935 21.5067 15.9956 21.5011Z" fill="white"/>
<path d="M15.9996 19.1431C15.7863 19.1299 15.5863 19.2485 15.4929 19.4435C15.3995 19.6385 15.4311 19.8714 15.5731 20.0334C15.7151 20.1954 15.9393 20.2546 16.1411 20.1833C16.3429 20.1121 16.4824 19.9244 16.4945 19.7079C16.5113 19.4134 16.2898 19.1607 15.9996 19.1431Z" fill="white"/>
<path d="M18.1583 19.7214C17.9964 19.8048 17.8999 19.979 17.9139 20.1627C17.928 20.3464 18.0498 20.5035 18.2225 20.5605C18.3952 20.6175 18.5848 20.5633 18.7028 20.4232C18.8207 20.283 18.8438 20.0846 18.7612 19.9205C18.7074 19.8129 18.6136 19.7314 18.5005 19.6941C18.3874 19.6567 18.2643 19.6665 18.1583 19.7214Z" fill="white"/>
</svg>
