<svg width="23" height="24" viewBox="0 0 23 24" fill="none" xmlns="http://www.w3.org/2000/svg">
<circle cx="11.3137" cy="12.0001" r="9" fill="#2DC78F"/>
<path d="M13.9253 9.03013C13.845 8.9947 13.7585 8.97547 13.6707 8.97356L8.9567 8.97356C8.86879 8.97356 8.78175 8.99087 8.70053 9.02451C8.61932 9.05815 8.54552 9.10746 8.48336 9.16962C8.35783 9.29516 8.2873 9.46542 8.2873 9.64295C8.2873 9.73086 8.30462 9.8179 8.33826 9.89912C8.3719 9.98033 8.42121 10.0541 8.48337 10.1163C8.6089 10.2418 8.77916 10.3123 8.9567 10.3123L12.0633 10.3076L8.48529 13.8856C8.36027 14.0106 8.29003 14.1802 8.29003 14.357C8.29003 14.5338 8.36027 14.7034 8.48529 14.8284C8.61032 14.9534 8.77989 15.0237 8.9567 15.0237C9.13351 15.0237 9.30308 14.9534 9.4281 14.8284L13.0061 11.2504L13.0013 14.357C13.001 14.445 13.0181 14.5322 13.0516 14.6136C13.0851 14.695 13.1344 14.7689 13.1966 14.8311C13.2588 14.8934 13.3328 14.9427 13.4142 14.9762C13.4955 15.0097 13.5827 15.0268 13.6707 15.0264C13.7587 15.0268 13.846 15.0097 13.9273 14.9762C14.0087 14.9427 14.0826 14.8934 14.1449 14.8311C14.2071 14.7689 14.2564 14.695 14.2899 14.6136C14.3234 14.5322 14.3405 14.445 14.3401 14.357L14.3401 9.64295C14.3382 9.5552 14.319 9.4687 14.2836 9.38839C14.2159 9.22648 14.0872 9.09775 13.9253 9.03013Z" fill="white"/>
</svg>
