<svg width="112" height="28" viewBox="0 0 112 28" fill="none" xmlns="http://www.w3.org/2000/svg">
<rect y="2" width="24" height="24" rx="12" fill="#4592FB"/>
<rect x="11" y="1" width="26" height="26" rx="13" fill="#7445FB" stroke="#F7F7F9" stroke-width="2"/>
<path d="M53.4883 23H56.5117V17.4102H60.0039C63.4258 17.4102 65.7578 15.1367 65.7578 11.7617V11.7383C65.7578 8.35156 63.4258 6.08984 60.0039 6.08984H53.4883V23ZM59.2539 8.5625C61.4219 8.5625 62.6875 9.72266 62.6875 11.75V11.7734C62.6875 13.8008 61.4219 14.9727 59.2539 14.9727H56.5117V8.5625H59.2539ZM70.4336 23.2109C72.0742 23.2109 73.457 22.3906 74.1719 21.0898H74.2422V23H77.1602V14.457C77.1602 11.9609 75.1562 10.3203 72.0508 10.3203C68.8984 10.3203 66.9883 11.9727 66.8125 14.1758L66.8008 14.3164H69.5078L69.5312 14.2109C69.7188 13.2969 70.5625 12.6523 71.9453 12.6523C73.4219 12.6523 74.2422 13.4141 74.2422 14.668V15.5234L70.9961 15.7227C67.9844 15.9102 66.2734 17.2344 66.2734 19.4375V19.4609C66.2734 21.6758 67.9492 23.2109 70.4336 23.2109ZM69.1797 19.3438V19.332C69.1797 18.3477 69.9648 17.7266 71.4062 17.6328L74.2422 17.457V18.3945C74.2422 19.8711 72.9766 20.9844 71.3008 20.9844C70.0234 20.9844 69.1797 20.3633 69.1797 19.3438ZM81.1328 27.125C83.7227 27.125 85.1758 26.1523 86.125 23.4219L90.5898 10.5781H87.5195L84.6016 20.5156H84.5195L81.6133 10.5781H78.4258L82.8906 23.0117L82.7148 23.5156C82.3398 24.5586 81.7188 24.875 80.6055 24.875C80.1953 24.875 79.8555 24.8164 79.6328 24.7695V26.9961C79.9844 27.0547 80.5703 27.125 81.1328 27.125ZM96.5547 23.2461C97.1406 23.2461 97.6562 23.1875 97.9961 23.1406V20.9492C97.7969 20.9609 97.5742 20.9961 97.293 20.9961C96.2266 20.9961 95.6875 20.6094 95.6875 19.3906V12.8281H97.9961V10.5781H95.6875V7.42578H92.7227V10.5781H90.9648V12.8281H92.7227V19.6367C92.7227 22.1914 93.9531 23.2461 96.5547 23.2461ZM105.227 23.2461C108.473 23.2461 110.301 21.3242 110.688 19.4141L110.723 19.2852H107.992L107.969 19.3672C107.688 20.1992 106.738 20.9727 105.285 20.9727C103.387 20.9727 102.191 19.6836 102.145 17.5039H110.84V16.5664C110.84 12.8164 108.637 10.3203 105.086 10.3203C101.535 10.3203 99.25 12.8984 99.25 16.8125V16.8242C99.25 20.7734 101.5 23.2461 105.227 23.2461ZM105.121 12.6055C106.668 12.6055 107.793 13.5898 108.004 15.5586H102.18C102.414 13.6484 103.574 12.6055 105.121 12.6055Z" fill="#0A041C"/>
</svg>
